# AST/ASF file generated using VICON BodyLanguage
# -----------------------------------------------
:version 1.10
:name VICON
:units
  mass 1.0
  length 0.45
  angle deg
:documentation
   .ast/.asf automatically generated from VICON data using
   VICON BodyBuilder and BodyLanguage model FoxedUp or BRILLIANT.MOD
:root
   order TX TY TZ RX RY RZ
   axis XYZ
   position 0 0 0  
   orientation 0 0 0 
:bonedata
  begin
     id 1 
     name lhipjoint
     direction 0.700308 -0.549349 0.455834 
     length 2.59063 
     axis 0 0 0  XYZ
  end
  begin
     id 2 
     name lfemur
     direction 0.34202 -0.939693 0  
     length 6.31066  
     axis 0 0 20  XYZ
    dof rx ry rz
    limits (-160.0 20.0)
           (-70.0 70.0)
           (-60.0 70.0)
  end
  begin
     id 3 
     name ltibia
     direction 0.34202 -0.939693 0   
     length 7.36093   
     axis 0 0 20   XYZ
    dof rx
    limits (-10.0 170.0)
  end
  begin
     id 4 
     name lfoot
     direction 0.0905332 -0.248738 0.96433   
     length 2.0233   
     axis -90 7.62852e-016 20   XYZ
    dof rx rz
    limits (-45.0 90.0)
           (-70.0 20.0)
  end
  begin
     id 5 
     name ltoes
     direction 1.53573e-011 -4.21855e-011 1   
     length 1.01524   
     axis -90 7.62852e-016 20   XYZ
    dof rx
    limits (-90.0 20.0)
  end
  begin
     id 6 
     name rhipjoint
     direction -0.61416 -0.607328 0.503944   
     length 2.34332  
     axis 0 0 0  XYZ 
  end
  begin
     id 7 
     name rfemur
     direction -0.34202 -0.939693 0   
     length 6.58548   
     axis 0 0 -20   XYZ
    dof rx ry rz
    limits (-160.0 20.0)
           (-70.0 70.0)
           (-70.0 60.0)
  end
  begin
     id 8 
     name rtibia
     direction -0.34202 -0.939693 0   
     length 7.20707   
     axis 0 0 -20   XYZ
    dof rx
    limits (-10.0 170.0)
 end
 begin
     id 9 
     name rfoot
     direction -0.136772 -0.375778 0.916561   
     length 1.92184  
     axis -90 -7.62852e-016 -20   XYZ
    dof rx rz
    limits (-45.0 90.0)
           (-20.0 70.0)
  end
  begin
     id 10 
     name rtoes
     direction -1.53535e-011 -4.21828e-011 1   
     length 0.951089   
     axis -90 -7.62852e-016 -20   XYZ
    dof rx
    limits (-90.0 20.0)
  end
  begin
     id 11 
     name lowerback
     direction -0.0444974 0.988086 -0.147332   
     length 1.9609   
     axis 0 0 0   XYZ
    dof rx ry rz
    limits (-20.0 45.0)
           (-30.0 30.0)
           (-30.0 30.0)
  end
  begin
     id 12 
     name upperback
     direction 0.00613146 0.999513 0.0306081   
     length 1.94944   
     axis 0 0 0   XYZ
    dof rx ry rz
    limits (-20.0 45.0)
           (-30.0 30.0)
           (-30.0 30.0)
  end
  begin
     id 13 
     name thorax
     direction 0.0254621 0.994518 0.101418   
     length 2.0119   
     axis 0 0 0   XYZ
    dof rx ry rz
    limits (-20.0 45.0)
           (-30.0 30.0)
           (-30.0 30.0)
  end
  begin
     id 14 
     name lowerneck
     direction 0.0168698 0.977854 0.208608   
     length 1.6375   
     axis 0 0 0   XYZ
    dof rx ry rz
    limits (-20.0 45.0)
           (-30.0 30.0)
           (-30.0 30.0)
  end
  begin
     id 15 
     name upperneck
     direction -0.0283988 0.989338 -0.142843   
     length 1.6851   
     axis 0 0 0   XYZ
    dof rx ry rz
    limits (-20.0 45.0)
           (-30.0 30.0)
           (-30.0 30.0)
  end
  begin
     id 16
     name head
     direction -0.0129422 0.99741 -0.0707489  
     length 1.69029  
     axis 0 0 0   XYZ
    dof rx ry rz
    limits (-20.0 45.0)
           (-30.0 30.0)
           (-30.0 30.0)
  end
  begin
     id 17 
     name lclavicle
     direction 0.820295 0.564628 -0.0911715  
     length 3.16484  
     axis 0 0 0   XYZ
    dof ry rz
    limits (-20.0 10.0)
           (0.0 20.0)
  end
  begin
     id 18 
     name lhumerus
     direction 1 -4.48969e-011 1.00186e-027   
     length 5.17853   
     axis 180 -30 -90   XYZ
    dof rx ry rz
    limits (-60.0 90.0)
           (-90.0 90.0)
           (-90.0 90.0)
  end
  begin
     id 19
     name lradius
     direction 1 -4.48966e-011 -1.52922e-027   
     length 3.40399   
     axis 180 -30 -90   XYZ
    dof rx
    limits (-10.0 170.0)
  end
  begin
     id 20
     name lwrist
     direction 1 -4.48981e-011 -3.80893e-027   
     length 1.70199   
     axis 1.1049e-015 90 90   XYZ
    dof ry
    limits (-180.0 0.0)
 end
  begin
     id 21 
     name lhand
     direction 1 -4.48957e-011 -7.61786e-027   
     length 0.708964   
     axis 4.86085e-015 90 90   XYZ
    dof rx rz
    limits (-90.0 90.0)
           (-45.0 45.0)
  end
  begin
     id 22 
     name lfingers
     direction 1 -4.48929e-011 -1.52357e-026   
     length 0.571585   
     axis 9.7217e-015 90 90   XYZ
    dof rx
    limits (0.0 90.0)
  end
  begin
     id 23
     name lthumb
     direction 0.707107 -6.34905e-011 0.707107   
     length 0.820685   
     axis -90 45 2.85299e-015   XYZ
    dof rx rz
    limits (-45.0 45.0)
           (-45.0 45.0)
  end
  begin
     id 24 
     name rclavicle
     direction -0.858602 0.463947 -0.218075   
     length 3.35137  
     axis 0 0 0   XYZ 
    dof ry rz
    limits (-10.0 20.0)
           (-20.0 0.0)
  end
  begin
     id 25 
     name rhumerus
     direction -1 -4.48969e-011 -1.98511e-027  
     length 5.42351   
     axis 180 30 90   XYZ
    dof rx ry rz
    limits (-90.0 60.0)
           (-90.0 90.0)
           (-90.0 90.0)
  end
  begin
     id 26 
     name rradius
     direction -1 -4.48961e-011 -2.82624e-027   
     length 3.42066   
     axis 180 30 90   XYZ
    dof rx
    limits (-10.0 170.0)
  end
  begin
     id 27 
     name rwrist
     direction -1 -4.48966e-011 -3.80893e-027   
     length 1.71033   
     axis 1.1049e-015 -90 -90   XYZ
    dof ry
    limits (-180.0 0.0)
  end
  begin
     id 28
     name rhand
     direction -1 -4.48964e-011 -7.61786e-027   
     length 0.743608   
     axis 4.86085e-015 -90 -90   XYZ
    dof rx rz
    limits (-90.0 90.0)
           (-45.0 45.0)
  end
  begin
     id 29
     name rfingers
     direction -1 -4.48961e-011 -1.52357e-026   
     length 0.599516   
     axis 9.7217e-015 -90 -90   XYZ
    dof rx
    limits (0.0 90.0)
  end
  begin
     id 30
     name rthumb
     direction -0.707107 -6.34913e-011 0.707107   
     length 0.860789   
     axis -90 -45 -2.85299e-015   XYZ
    dof rx rz
    limits (-45.0 45.0)
           (-45.0 45.0)
  end
:hierarchy
  begin
    root lhipjoint rhipjoint lowerback
    lhipjoint lfemur
    lfemur ltibia
    ltibia lfoot
    lfoot ltoes
    rhipjoint rfemur
    rfemur rtibia
    rtibia rfoot
    rfoot rtoes
    lowerback upperback
    upperback thorax
    thorax lowerneck lclavicle rclavicle
    lowerneck upperneck
    upperneck head
    lclavicle lhumerus
    lhumerus lradius
    lradius lwrist
    lwrist lhand lthumb
    lhand lfingers
    rclavicle rhumerus
    rhumerus rradius
    rradius rwrist
    rwrist rhand rthumb
    rhand rfingers
  end

#!OML:ASF E:\mmandel\Project 1\Capture day 1\Session 2\Subject.ASF
:FULLY-SPECIFIED
:DEGREES
118
root 23.6221 2.45535 -1.37145 34.646 75.9931 -58.7827
lowerback 0.275655 2.87138 -8.55295
upperback -2.35191 3.78018 1.80233
thorax -3.29057 2.14849 6.54473
lowerneck -12.5364 3.07409 4.1502
upperneck -6.61266 3.73926 -9.72096
head 0.348556 1.85322 -3.76427
rclavicle 8.34896e-015 2.23881e-014
rhumerus -42.4108 -43.5378 -46.9254
rradius 22.9648
rwrist -395.433
rhand -12.0411 28.6129
rfingers 7.12502
rthumb 14.0174 -0.894415
lclavicle 8.34896e-015 2.23881e-014
lhumerus -45.8212 18.6111 69.9495
lradius 34.3666
lwrist 63.5741
lhand -26.3406 -33.0603
lfingers 7.12502
lthumb 0.216793 -3.08067
rfemur -42.3864 -53.7322 25.7197
rtibia 73.0408
rfoot -4.33676 -7.65831
rtoes -14.7548
lfemur -2.27837 4.21544 -14.4217
ltibia 23.4625
lfoot -12.3817 -7.44363
ltoes 15.2605
119
root 23.6249 2.45525 -1.36479 34.1304 75.9445 -59.4479
lowerback 0.112306 2.88494 -8.49205
upperback -2.36489 3.81513 1.80754
thorax -3.21382 2.16252 6.52217
lowerneck -12.5519 3.08769 4.16384
upperneck -6.65376 3.75449 -9.71889
head 0.339047 1.86205 -3.76552
rclavicle 4.41302e-014 7.72403e-014
rhumerus -41.5063 -42.1619 -48.7751
rradius 23.9917
rwrist -397.525
rhand -12.4123 28.4878
rfingers 7.12502
rthumb 13.6596 -1.04398
lclavicle 4.41302e-014 7.72403e-014
lhumerus -46.1444 18.162 70.1048
lradius 35.3681
lwrist 64.7794
lhand -26.6255 -32.9269
lfingers 7.12502
lthumb -0.0583712 -2.94716
rfemur -42.5711 -53.5634 26.034
rtibia 72.9982
rfoot -4.23837 -7.67504
rtoes -15.2782
lfemur -2.28996 4.3994 -14.2723
ltibia 23.282
lfoot -12.2683 -7.52219
ltoes 15.6291
120
root 23.6305 2.4533 -1.35558 33.5815 75.789 -60.2731
lowerback -0.200494 2.9123 -8.47002
upperback -2.4206 3.88133 1.80555
thorax -3.10538 2.19427 6.51941
lowerneck -12.5513 3.10876 4.13781
upperneck -6.69347 3.78537 -9.66385
head 0.325835 1.88014 -3.73956
rclavicle 7.59357e-014 2.78299e-015
rhumerus -40.9563 -41.4747 -49.9522
rradius 24.7043
rwrist -398.692
rhand -12.5376 28.3874
rfingers 7.12502
rthumb 13.5389 -1.1525
lclavicle 7.59357e-014 2.78299e-015
lhumerus -46.48 17.7558 70.2472
lradius 36.337
lwrist 65.9818
lhand -26.9022 -32.9778
lfingers 7.12502
lthumb -0.325611 -2.99833
rfemur -42.9525 -53.2675 26.4939
rtibia 72.9666
rfoot -4.21339 -7.64774
rtoes -15.534
lfemur -2.44069 4.6984 -14.147
ltibia 23.199
lfoot -12.2502 -7.62976
ltoes 16.0061
121
root 23.6459 2.44826 -1.33229 32.7435 75.3058 -61.8524
lowerback -1.09596 3.04177 -8.68973
upperback -2.59958 4.13982 1.83207
thorax -2.85346 2.33134 6.70536
lowerneck -12.4373 3.06904 4.13146
upperneck -6.76784 3.73036 -9.62347
head 0.276426 1.85711 -3.72846
rclavicle -3.53837e-014 -1.79403e-014
rhumerus -40.772 -41.253 -50.4912
rradius 25.1122
rwrist -399.222
rhand -12.4714 28.7997
rfingers 7.12502
rthumb 13.6027 -0.735873
lclavicle -3.53837e-014 -1.79403e-014
lhumerus -46.5891 17.5859 70.3794
lradius 36.9844
lwrist 66.7524
lhand -27.0992 -32.9501
lfingers 7.12502
lthumb -0.515936 -2.97094
rfemur -44.0234 -52.4564 27.5836
rtibia 72.8996
rfoot -4.37461 -7.67194
rtoes -15.5053
lfemur -2.93814 5.45044 -14.0017
ltibia 23.1047
lfoot -12.263 -7.75996
ltoes 16.1743
122
root 23.6284 2.4562 -1.36034 33.7601 76.0021 -59.8711
lowerback 0.0518326 2.94506 -8.36493
upperback -2.41746 3.90175 1.75499
thorax -3.23653 2.20544 6.39159
lowerneck -12.274 2.99005 4.15764
upperneck -6.88149 3.6167 -9.63194
head 0.203613 1.80569 -3.74473
rclavicle 8.22969e-014 1.81267e-014
rhumerus -40.6807 -41.022 -50.865
rradius 25.5215
rwrist -399.852
rhand -12.7508 29.2848
rfingers 7.12502
rthumb 13.3334 -0.268615
lclavicle 8.22969e-014 1.81267e-014
lhumerus -46.7209 17.1079 70.7177
lradius 37.8432
lwrist 67.7744
lhand -27.2657 -32.8528
lfingers 7.12502
lthumb -0.676665 -2.8741
rfemur -42.5352 -53.5001 26.1465
rtibia 72.9164
rfoot -4.25326 -7.50003
rtoes -15.6345
lfemur -2.23035 4.31157 -14.1665
ltibia 23.1217
lfoot -12.1486 -7.607
ltoes 16.6365
123
root 23.6485 2.44825 -1.33239 33.0228 75.4316 -61.7803
lowerback -1.30348 3.03527 -8.55174
upperback -2.68645 4.14824 1.75222
thorax -2.81135 2.33361 6.55189
lowerneck -12.2292 2.97533 4.13549
upperneck -6.93187 3.59868 -9.54378
head 0.175043 1.7999 -3.71091
rclavicle -3.89618e-014 -5.97348e-014
rhumerus -40.3463 -40.6774 -51.5627
rradius 25.8765
rwrist -400.519
rhand -13.6125 29.4141
rfingers 7.12502
rthumb 12.5027 -0.19185
lclavicle -3.89618e-014 -5.97348e-014
lhumerus -47.0176 16.4566 71.0305
lradius 38.942
lwrist 69.0873
lhand -27.5539 -32.7034
lfingers 7.12502
lthumb -0.955085 -2.72583
rfemur -44.3408 -52.4571 27.8651
rtibia 72.8438
rfoot -4.48181 -7.60701
rtoes -15.0844
lfemur -3.217 5.32758 -13.9986
ltibia 23.1515
lfoot -12.059 -7.8807
ltoes 17.0473
124
root 23.6276 2.45306 -1.35634 33.9422 76.1637 -59.7788
lowerback -0.108446 2.85888 -8.21421
upperback -2.4417 3.80046 1.70799
thorax -3.13871 2.14712 6.26992
lowerneck -12.1336 2.96917 4.18798
upperneck -6.99282 3.58071 -9.6073
head 0.140383 1.79279 -3.74584
rclavicle -5.40694e-014 -1.40019e-014
rhumerus -40.0413 -40.3417 -52.0924
rradius 26.0738
rwrist -401.138
rhand -14.5856 29.417
rfingers 7.12502
rthumb 11.5644 -0.243915
lclavicle -5.40694e-014 -1.40019e-014
lhumerus -47.3034 16.1653 71.1313
lradius 39.6165
lwrist 69.963
lhand -27.5894 -32.6413
lfingers 7.12502
lthumb -0.989396 -2.66385
rfemur -42.5469 -53.5599 26.2496
rtibia 72.8244
rfoot -4.37525 -7.47278
rtoes -13.481
lfemur -2.46178 4.30337 -14.0787
ltibia 23.3313
lfoot -12.3213 -7.68586
ltoes 17.6103
125
root 23.6366 2.45263 -1.34952 33.6352 75.9484 -60.5898
lowerback -0.611914 2.89239 -8.20565
upperback -2.60455 3.89096 1.70327
thorax -3.0395 2.1976 6.27812
lowerneck -11.8 2.971 4.27829
upperneck -7.36098 3.55778 -9.74184
head -0.0334877 1.79722 -3.81874
rclavicle -6.40087e-014 -9.21864e-015
rhumerus -39.846 -40.1305 -52.4313
rradius 26.2303
rwrist -401.621
rhand -15.3893 29.1709
rfingers 7.12502
rthumb 10.7893 -0.531977
lclavicle -6.40087e-014 -9.21864e-015
lhumerus -47.3667 16.4304 70.9411
lradius 39.7296
lwrist 70.1816
lhand -27.423 -32.5755
lfingers 7.12502
lthumb -0.828645 -2.5974
rfemur -43.3953 -53.1388 27.034
rtibia 72.7484
rfoot -4.42214 -7.59346
rtoes -12.788
lfemur -2.97284 4.65214 -14.0392
ltibia 23.4229
lfoot -12.535 -7.7194
ltoes 18.057
126
root 23.632 2.4551 -1.3564 33.7042 76.3468 -59.8935
lowerback 0.0725293 2.84198 -8.04268
upperback -2.48303 3.7645 1.72007
thorax -3.26634 2.13169 6.17658
lowerneck -11.7844 2.9334 4.11585
upperneck -7.24183 3.53421 -9.48826
head -0.00918955 1.78538 -3.69743
rclavicle -1.82882e-014 -2.15557e-014
rhumerus -39.798 -39.938 -52.6642
rradius 26.5316
rwrist -402.098
rhand -16.1888 28.8263
rfingers 7.12502
rthumb 10.018 -0.915244
lclavicle -1.82882e-014 -2.15557e-014
lhumerus -47.3686 16.6577 70.8367
lradius 39.8597
lwrist 70.2509
lhand -27.4903 -32.351
lfingers 7.12502
lthumb -0.893681 -2.37314
rfemur -42.2451 -53.6564 26.1682
rtibia 72.6789
rfoot -4.30678 -7.39939
rtoes -14.1703
lfemur -2.49632 4.20213 -13.9574
ltibia 23.5352
lfoot -12.6333 -7.77761
ltoes 17.0514
127
root 23.6361 2.45565 -1.34863 33.2862 76.2582 -60.4443
lowerback -0.0686224 2.85396 -8.05006
upperback -2.53058 3.7934 1.73107
thorax -3.24263 2.14838 6.1969
lowerneck -11.5359 2.91747 4.26208
upperneck -7.56273 3.48106 -9.69592
head -0.152122 1.76999 -3.80766
rclavicle 5.08889e-014 -3.15322e-014
rhumerus -39.6986 -39.7206 -53.0067
rradius 26.8301
rwrist -402.485
rhand -17.0153 28.737
rfingers 7.12502
rthumb 9.22054 -1.04137
lclavicle 5.08889e-014 -3.15322e-014
lhumerus -47.5372 16.624 70.8108
lradius 40.2961
lwrist 70.6318
lhand -27.7608 -32.3262
lfingers 7.12502
lthumb -1.15484 -2.34956
rfemur -42.3753 -53.4228 26.4021
rtibia 72.6047
rfoot -4.28587 -7.30987
rtoes -15.2153
lfemur -2.59623 4.47335 -13.855
ltibia 23.5601
lfoot -12.644 -7.91893
ltoes 16.8255
128
root 23.6434 2.45431 -1.3315 32.9492 75.8334 -61.4282
lowerback -0.796612 2.91748 -8.265
upperback -2.69278 3.94169 1.72152
thorax -3.04245 2.23006 6.33611
lowerneck -11.4186 2.9163 4.34894
upperneck -7.66215 3.46358 -9.82116
head -0.201029 1.7642 -3.87228
rclavicle 8.74653e-015 4.45899e-014
rhumerus -39.5559 -39.4349 -53.4378
rradius 27.1724
rwrist -402.924
rhand -17.8953 28.4907
rfingers 7.12502
rthumb 8.37138 -1.32336
lclavicle 8.74653e-015 4.45899e-014
lhumerus -47.6576 16.5132 70.813
lradius 40.6783
lwrist 71.1395
lhand -27.9603 -32.6325
lfingers 7.12502
lthumb -1.34759 -2.657
rfemur -43.3853 -52.7535 27.274
rtibia 72.5487
rfoot -4.29765 -7.39387
rtoes -13.982
lfemur -3.14686 5.23464 -13.8362
ltibia 23.6032
lfoot -12.7263 -8.08377
ltoes 16.9128
129
root 23.6587 2.44875 -1.30422 32.1974 75.2429 -63.1808
lowerback -1.9726 3.03416 -8.53649
upperback -2.91443 4.21066 1.76497
thorax -2.68421 2.3735 6.58714
lowerneck -11.5256 2.92455 4.21858
upperneck -7.36063 3.50279 -9.66297
head -0.0876097 1.77445 -3.78447
rclavicle 1.55052e-014 4.24033e-014
rhumerus -39.3664 -38.8879 -54.0295
rradius 27.7341
rwrist -403.672
rhand -18.8783 28.2809
rfingers 7.12502
rthumb 7.42263 -1.56887
lclavicle 1.55052e-014 4.24033e-014
lhumerus -47.5946 16.6204 70.7461
lradius 40.8168
lwrist 71.4634
lhand -27.9924 -32.8355
lfingers 7.12502
lthumb -1.37854 -2.86019
rfemur -44.8155 -51.7479 28.6524
rtibia 72.4435
rfoot -4.38503 -7.53064
rtoes -12.9875
lfemur -3.97912 6.36188 -13.7019
ltibia 23.6598
lfoot -12.8124 -8.24612
ltoes 16.2601
130
root 23.6619 2.4459 -1.30387 32.2539 75.339 -63.3026
lowerback -2.17931 2.99983 -8.39525
upperback -2.94914 4.18284 1.75816
thorax -2.58693 2.35424 6.5125
lowerneck -11.7549 2.90746 3.99818
upperneck -6.92855 3.5249 -9.3278
head 0.0809752 1.77215 -3.61598
rclavicle -7.95139e-014 1.6114e-014
rhumerus -39.167 -38.2105 -54.7191
rradius 28.4935
rwrist -404.686
rhand -19.875 28.4083
rfingers 7.12502
rthumb 6.46048 -1.47313
lclavicle -7.95139e-014 1.6114e-014
lhumerus -47.6023 16.6303 70.7292
lradius 41.1996
lwrist 71.8675
lhand -28.2301 -32.819
lfingers 7.12502
lthumb -1.60818 -2.84534
rfemur -44.9712 -51.7407 28.869
rtibia 72.3594
rfoot -4.33814 -7.4248
rtoes -13.0095
lfemur -4.23443 6.44956 -13.6432
ltibia 23.7417
lfoot -12.7401 -8.29032
ltoes 16.4267
131
root 23.6616 2.4454 -1.30578 32.3534 75.5337 -63.2798
lowerback -2.2394 2.94166 -8.21952
upperback -2.96818 4.10856 1.75878
thorax -2.54567 2.31199 6.41891
lowerneck -11.9285 2.89171 3.86879
upperneck -6.66911 3.53037 -9.09382
head 0.186542 1.76673 -3.50496
rclavicle 1.51076e-014 1.09456e-014
rhumerus -39.0301 -37.4654 -55.4458
rradius 29.4665
rwrist -405.896
rhand -20.767 28.2881
rfingers 7.12502
rthumb 5.59928 -1.61797
lclavicle 1.51076e-014 1.09456e-014
lhumerus -47.7176 16.455 70.8256
lradius 41.8497
lwrist 72.4814
lhand -28.7707 -33.1592
lfingers 7.12502
lthumb -2.13029 -3.19006
rfemur -44.9342 -51.7902 28.9147
rtibia 72.288
rfoot -4.3565 -7.24706
rtoes -12.1054
lfemur -4.40495 6.32428 -13.584
ltibia 23.7982
lfoot -12.6073 -8.32499
ltoes 16.9218
